<?xml version="1.0" encoding="UTF-8"?>
<svg version="1.1" xmlns="http://www.w3.org/2000/svg" width="1500" height="1500">
<path d="M0 0 C495 0 990 0 1500 0 C1500 495 1500 990 1500 1500 C1005 1500 510 1500 0 1500 C0 1005 0 510 0 0 Z " fill="#E0E0E0" transform="translate(0,0)"/>
<path d="M0 0 C0.69361633 0.09945923 1.38723267 0.19891846 2.10186768 0.3013916 C65.76545913 9.47064482 126.00526925 30.47173063 181 64 C182.46987767 64.88180121 183.93991588 65.76333491 185.41015625 66.64453125 C208.52303711 80.64616662 229.8034892 97.80729048 249.7578125 115.9765625 C251.70460493 117.73342396 253.68535882 119.43220252 255.6875 121.125 C264.42351053 128.73780917 272.81236605 137.1441332 280.28125 146.00390625 C282.07899903 148.0917466 283.95137059 150.10029982 285.83520508 152.11035156 C291.85701137 158.55716541 297.34212135 165.32061 302.703125 172.32226562 C303.87608363 173.83969253 305.07710995 175.33532123 306.28125 176.828125 C321.41904687 195.80221286 334.17782117 216.85473609 346 238 C346.63059326 239.1144751 346.63059326 239.1144751 347.27392578 240.25146484 C359.00872537 261.08551931 368.12626399 283.45738594 376 306 C376.3398291 306.97018066 376.6796582 307.94036133 377.02978516 308.93994141 C384.93603389 331.81928673 390.74580328 355.3940557 394.8125 379.25 C394.99514404 380.30985107 395.17778809 381.36970215 395.3659668 382.46166992 C395.98000416 386.29989978 396.50815454 390.14464278 397 394 C397.18792114 395.4548027 397.18792114 395.4548027 397.37963867 396.93899536 C399.69752671 415.40867226 400.4810175 433.58142924 400.39111328 452.1652832 C400.37403886 455.72204767 400.38421023 459.27813741 400.40142536 462.83487892 C400.50413854 487.869541 398.89292468 512.6306716 394.0625 537.25 C393.79542507 538.65100193 393.52899976 540.05212784 393.26318359 541.45336914 C392.5272918 545.30596429 391.76508045 549.15309163 391 553 C390.82355957 553.91700684 390.64711914 554.83401367 390.46533203 555.77880859 C387.96016043 568.75003045 384.03169791 581.27762965 380.00830078 593.84912109 C379.37121902 595.83996303 378.73876586 597.83229742 378.11279297 599.82666016 C370.80340499 623.11331934 360.86436003 645.1741433 350 667 C349.58814453 667.83305664 349.17628906 668.66611328 348.75195312 669.52441406 C338.6961147 689.72811605 326.76918691 709.1199483 313 727 C311.54105233 728.97871385 310.08270384 730.95786965 308.625 732.9375 C300.22810292 744.07349186 291.4322414 754.80018212 281.8515625 764.9375 C279.73919067 767.17645868 277.71512793 769.47576393 275.70703125 771.80859375 C271.68810985 776.42563426 267.40030838 780.74665521 263.0625 785.0625 C261.92264648 786.2081543 261.92264648 786.2081543 260.75976562 787.37695312 C256.00242065 792.12617283 251.09883529 796.62233176 246 801 C244.84341836 802.02159087 243.68842501 803.0449832 242.53515625 804.0703125 C233.3545092 812.16941824 223.80456091 819.67318919 214 827 C213.415672 827.54425125 212.83134399 828.0885025 212.22930908 828.64924622 C210 830 210 830 207.43687439 829.77857971 C206.48567215 829.5017485 205.53446991 829.2249173 204.55444336 828.93969727 C202.95595047 828.48531784 202.95595047 828.48531784 201.32516479 828.02175903 C200.22786041 827.68457855 199.13055603 827.34739807 198 827 C196.97705841 826.69222626 195.95411682 826.38445251 194.900177 826.06735229 C191.63333573 825.06171951 188.38058456 824.01844394 185.12890625 822.96484375 C183.91260529 822.57379456 182.69630432 822.18274536 181.44314575 821.77984619 C178.16102481 820.72380108 174.88076647 819.66208923 171.60110092 818.59844589 C169.5499231 817.93342237 167.49834951 817.26963244 165.44668579 816.60610962 C145.8190801 810.25565621 126.23034385 803.79462167 106.6875 797.1875 C105.60123322 796.82204071 104.51496643 796.45658142 103.39578247 796.08004761 C93.28838665 792.67428943 83.21722075 789.22204169 73.3359375 785.19921875 C72.3192524 784.78799019 72.3192524 784.78799019 71.2820282 784.36845398 C61.01409338 780.07341591 52.82677253 772.29565803 47.0625 762.8125 C45.13978292 757.72295478 44.8746876 752.76310059 44.87136555 747.36063194 C44.86961251 746.71572203 44.86785947 746.07081213 44.86605331 745.40635949 C44.86140686 743.24853562 44.86385532 741.09077953 44.86628723 738.93295288 C44.86441857 737.36890217 44.86211764 735.80485192 44.85942191 734.24080241 C44.85330417 729.94492249 44.85343748 725.64906202 44.85461628 721.35317874 C44.8548203 716.7190615 44.84930137 712.08495051 44.84455872 707.45083618 C44.83625131 698.37169274 44.83350382 689.29255579 44.83294634 680.21340887 C44.83247114 672.83188371 44.83041619 665.45036069 44.82724571 658.06883621 C44.81843822 637.13681118 44.81382638 616.20479127 44.81457619 595.27276437 C44.81463612 593.57999454 44.81463612 593.57999454 44.81469727 591.85302734 C44.81475859 590.15818803 44.81475859 590.15818803 44.81482115 588.42910953 C44.81522745 570.12438599 44.80566208 551.81968304 44.7915589 533.51496546 C44.77718922 514.7158298 44.77028907 495.91670418 44.77115268 477.11756289 C44.77148448 466.56497302 44.76874464 456.01240472 44.75797462 445.45981979 C44.74886176 436.47334252 44.74670077 427.48689658 44.75348405 418.50041668 C44.75674552 413.91771342 44.75681944 409.33507026 44.7481308 404.75237274 C44.74024821 400.55148746 44.74171516 396.35070979 44.75041493 392.14982708 C44.75194607 390.63567056 44.75014841 389.12150594 44.74455485 387.60735898 C44.69241369 372.48290742 45.49018634 358.78673175 56.25 347.1875 C67.35055056 337.03633863 79.29137767 334.36862829 94 335 C94 333.02 94 331.04 94 329 C48.13 329 2.26 329 -45 329 C-45 330.98 -45 332.96 -45 335 C-43.65808594 334.94779297 -43.65808594 334.94779297 -42.2890625 334.89453125 C-28.46753742 334.58509412 -17.6237166 337.68015973 -7.25 347.1875 C3.97661291 359.23686705 4.30473637 373.35934399 4.41748047 388.89477539 C4.43659343 390.58966304 4.45637722 392.28454323 4.47677612 393.97941589 C4.53917044 399.51873731 4.58005582 405.05811511 4.6171875 410.59765625 C4.62378214 411.54537171 4.63037679 412.49308717 4.63717127 413.46952128 C4.69874638 422.43584607 4.75206807 431.40218618 4.78600883 440.36866093 C4.82967403 451.76341008 4.91334476 463.15625751 5.05288398 474.55024725 C5.14806984 482.60171579 5.19596921 490.65267807 5.21040261 498.70469087 C5.22021522 503.49335785 5.24937906 508.27987482 5.3298912 513.06791878 C5.69780029 536.01775402 4.72220804 553.18409037 -8 573 C-8.9253979 574.51997432 -9.84866133 576.04125117 -10.76931763 577.56410217 C-15.95000965 586.04785312 -22.36563575 593.62620196 -29 601 C-29.62648438 601.69867187 -30.25296875 602.39734375 -30.8984375 603.1171875 C-47.25624504 620.39656166 -72.84265598 627.69719377 -95.96861458 629.26988792 C-99.94211901 629.36377093 -103.90915784 629.37280822 -107.88305664 629.34057617 C-109.40699713 629.33965371 -110.93093889 629.34006351 -112.45487881 629.34167194 C-116.47754776 629.34233975 -120.49994028 629.32515578 -124.52254486 629.30384064 C-128.3193585 629.28655201 -132.1161103 629.28594036 -135.91296387 629.28381348 C-146.96284481 629.26817107 -158.01267606 629.22628737 -169.0625 629.1875 C-193.791875 629.125625 -218.52125 629.06375 -244 629 C-244 566.3 -244 503.6 -244 439 C-213.4028125 438.87625 -213.4028125 438.87625 -182.1875 438.75 C-175.76176514 438.71358398 -169.33603027 438.67716797 -162.71557617 438.63964844 C-154.83068848 438.62158203 -154.83068848 438.62158203 -151.1320343 438.6182251 C-147.89339843 438.61050788 -144.65520479 438.588008 -141.41668624 438.56073356 C-138.18559991 438.53920752 -134.95453406 438.54464245 -131.72338867 438.54589844 C-130.0261895 438.52430979 -130.0261895 438.52430979 -128.29470348 438.502285 C-118.47104519 438.55312306 -109.55347226 440.90566841 -101.7890625 447.15234375 C-96.80423896 452.3004257 -92.85083981 458.96841366 -92.90234375 466.23046875 C-92.90556641 467.03291016 -92.90878906 467.83535156 -92.91210938 468.66210938 C-92.92048828 469.49548828 -92.92886719 470.32886719 -92.9375 471.1875 C-92.94201172 472.03248047 -92.94652344 472.87746094 -92.95117188 473.74804688 C-92.96294597 475.83206155 -92.9808811 477.91603977 -93 480 C-90.69 480 -88.38 480 -86 480 C-86 446.67 -86 413.34 -86 379 C-88.31 379 -90.62 379 -93 379 C-92.96519531 380.14597656 -92.93039062 381.29195312 -92.89453125 382.47265625 C-92.86637297 384.00258939 -92.83907501 385.53253854 -92.8125 387.0625 C-92.77479492 388.19075195 -92.77479492 388.19075195 -92.73632812 389.34179688 C-92.62824051 397.66454296 -95.6751317 404.47187419 -101.49609375 410.56640625 C-111.04546333 419.3659408 -121.41791218 420.15351399 -133.88037109 420.11352539 C-135.09038095 420.11364593 -136.30039082 420.11376646 -137.54706764 420.11389065 C-141.45587643 420.11314548 -145.36463727 420.10553524 -149.2734375 420.09765625 C-151.68985979 420.0961856 -154.1062824 420.09516565 -156.52270508 420.09460449 C-165.47347492 420.08936582 -174.42423793 420.07540459 -183.375 420.0625 C-213.384375 420.0315625 -213.384375 420.0315625 -244 420 C-244 355.32 -244 290.64 -244 224 C-157.24543611 224 -157.24543611 224 -146 235 C-140.11956815 241.66706857 -135.84427448 248.70681948 -135.90234375 257.765625 C-135.90556641 258.65507813 -135.90878906 259.54453125 -135.91210938 260.4609375 C-135.92048828 261.38132812 -135.92886719 262.30171875 -135.9375 263.25 C-135.94201172 264.18585938 -135.94652344 265.12171875 -135.95117188 266.0859375 C-135.96293082 268.39069041 -135.97936574 270.69531227 -136 273 C-133.69 273 -131.38 273 -129 273 C-129 246.6 -129 220.2 -129 193 C-133.29 194.32 -137.58 195.64 -142 197 C-168.97838759 203.87185344 -196.94077673 204.4659822 -224.61521411 204.30418181 C-228.48410443 204.28495113 -232.35300834 204.28362923 -236.22193909 204.28010559 C-243.49187231 204.27091722 -250.76166417 204.24649016 -258.03153616 204.21605712 C-266.33195602 204.18209188 -274.63238398 204.1659232 -282.93285644 204.15097082 C-299.95531831 204.11992247 -316.97764404 204.06743048 -334 204 C-334 205.98 -334 207.96 -334 210 C-333.11699219 209.96519531 -332.23398437 209.93039062 -331.32421875 209.89453125 C-317.550524 209.58384641 -306.83466822 212.23369562 -296.25 221.375 C-288.54815749 230.36048293 -284.88239314 237.262734 -284.86857224 249.35825539 C-284.86473109 250.62379049 -284.86088995 251.88932559 -284.8569324 253.19321024 C-284.85771255 254.59003939 -284.85859132 255.98686848 -284.85955811 257.38369751 C-284.85697298 258.87350204 -284.85395941 260.36330588 -284.8505547 261.85310876 C-284.84249874 265.94375851 -284.84069591 270.0343907 -284.83995724 274.12504745 C-284.83810423 278.53830544 -284.83055564 282.95155438 -284.82382202 287.36480713 C-284.81024803 297.01370891 -284.8042154 306.66260654 -284.79981136 316.31151628 C-284.7970473 322.33830764 -284.79280964 328.36509739 -284.78830719 334.39188766 C-284.77611562 351.08387717 -284.76581616 367.7758654 -284.7624321 384.46785927 C-284.76210275 386.06992797 -284.76210275 386.06992797 -284.76176675 387.7043617 C-284.76154847 388.77493876 -284.76133019 389.84551582 -284.7611053 390.94853461 C-284.76066184 393.11787073 -284.76021527 395.28720685 -284.75976562 397.45654297 C-284.75943348 399.07063569 -284.75943348 399.07063569 -284.75909463 400.71733634 C-284.75514753 418.14908929 -284.73769571 435.5808004 -284.7144061 453.0125372 C-284.69067873 470.91670323 -284.67822961 488.82084829 -284.67706418 506.7250303 C-284.67614819 516.77461232 -284.67041495 526.82413983 -284.65224457 536.87370682 C-284.63682487 545.43200027 -284.63173414 553.99022237 -284.63998267 562.54852708 C-284.64388258 566.9125334 -284.64299187 571.27639613 -284.62892532 575.64038467 C-284.61614685 579.64147124 -284.61741832 583.64230691 -284.62951604 587.64339332 C-284.63146623 589.08487392 -284.62842618 590.52637254 -284.61967167 591.96782787 C-284.5301571 607.71332285 -287.35752455 619.99168456 -298.125 631.8125 C-305.80219667 639.18939816 -315.772189 642.18075244 -326.1875 642.0625 C-326.93708984 642.05798828 -327.68667969 642.05347656 -328.45898438 642.04882812 C-330.30602383 642.03706354 -332.15302213 642.01912865 -334 642 C-334 644.31 -334 646.62 -334 649 C-232.36 649 -130.72 649 -26 649 C-24.515 643.555 -24.515 643.555 -23 638 C-22.40720835 636.16049988 -21.7924736 634.32753379 -21.1340332 632.51049805 C-20.79970779 631.58130051 -20.46538239 630.65210297 -20.1209259 629.69474792 C-19.76777817 628.7268483 -19.41463043 627.75894867 -19.05078125 626.76171875 C-18.67447067 625.71965775 -18.2981601 624.67759674 -17.91044617 623.60395813 C-16.71514825 620.2970017 -15.51393407 616.99223139 -14.3125 613.6875 C-13.52630208 611.51511529 -12.74049207 609.34259015 -11.95507812 607.16992188 C-9.64276864 600.77774533 -7.32245275 594.38849714 -5 588 C-4.60794373 586.92123596 -4.21588745 585.84247192 -3.81195068 584.73101807 C-1.54254622 578.48689194 0.72800511 572.24318403 3 566 C3.33 566 3.66 566 4 566 C4.07020018 587.30605548 4.12304202 608.61209177 4.15543652 629.91823959 C4.17088019 639.81190618 4.19192176 649.70550075 4.22631836 659.59912109 C4.25629741 668.22624806 4.27559315 676.85332285 4.28226548 685.48050046 C4.28616337 690.04503674 4.29527145 694.60942378 4.31719017 699.17391205 C4.33768995 703.478153 4.34380679 707.78218451 4.33932304 712.08646965 C4.34014225 713.65852182 4.34602705 715.23058166 4.35761642 716.80259132 C4.45859038 731.21701068 2.9904907 744.13725301 -7.00390625 755.22265625 C-15.86615651 763.70441634 -25.70719962 767.21309225 -37.8125 767.0625 C-38.50537109 767.05798828 -39.19824219 767.05347656 -39.91210938 767.04882812 C-41.60811068 767.03713156 -43.30406703 767.01919924 -45 767 C-45 769.31 -45 771.62 -45 774 C-44.22253418 773.97824707 -43.44506836 773.95649414 -42.64404297 773.93408203 C-17.73600646 773.54437203 5.81719793 780.67828696 29 789 C30.66144043 789.58974609 30.66144043 789.58974609 32.35644531 790.19140625 C61.77414696 800.73923 89.85114244 814.73324214 117.87060547 828.48388672 C123.79747372 831.39249259 129.72891016 834.29174091 135.66015625 837.19140625 C147.10912572 842.78946562 158.55536463 848.39308595 170 854 C170 854.66 170 855.32 170 856 C136.90340052 873.37882212 103.90056796 888.16453234 68 899 C66.83380127 899.35868164 66.83380127 899.35868164 65.64404297 899.72460938 C45.13218522 905.99352579 23.94646859 909.74512133 2.75 912.8125 C1.67783737 912.97020874 1.67783737 912.97020874 0.58401489 913.13110352 C-18.71408921 915.94198509 -37.92313529 916.2134356 -57.3984375 916.24023438 C-60.11862723 916.24460247 -62.83849683 916.25845956 -65.55859375 916.28125 C-82.33991925 916.4189286 -98.69462859 915.78700378 -115.31843567 913.37742615 C-118.94616743 912.86682836 -122.582487 912.44478514 -126.22103882 912.01956177 C-151.2764654 909.05593732 -176.04694413 902.76444396 -200 895 C-201.06734375 894.65743164 -202.1346875 894.31486328 -203.234375 893.96191406 C-258.8359735 875.94847349 -311.99460236 846.63117523 -356 808 C-356.7321875 807.36707031 -357.464375 806.73414063 -358.21875 806.08203125 C-360.15763782 804.40089241 -362.0792077 802.70177458 -364 801 C-364.68739258 800.39671875 -365.37478516 799.7934375 -366.08300781 799.171875 C-372.88567174 793.13785739 -379.36769324 786.8185019 -385.7956543 780.38964844 C-387.55824523 778.62924948 -389.32871039 776.87703618 -391.09960938 775.125 C-397.13668582 769.11710041 -402.83873902 763.04792315 -408.11914062 756.35449219 C-409.97839328 754.02704767 -411.9259211 751.82123712 -413.9375 749.625 C-464.80299233 692.84024919 -496.9338091 616.77298258 -511.47705078 542.65380859 C-511.92782614 540.36626043 -512.39666893 538.08349665 -512.87109375 535.80078125 C-515.68745808 521.36873812 -516.78437617 506.63845151 -518 492 C-518.09861328 490.82904785 -518.19722656 489.6580957 -518.29882812 488.45166016 C-519.12904947 477.51394186 -519.24318973 466.5901193 -519.25 455.625 C-519.25067474 454.63956207 -519.25134949 453.65412415 -519.25204468 452.63882446 C-519.20248619 406.70922354 -512.34497583 360.69446661 -498 317 C-497.68869141 316.03771484 -497.37738281 315.07542969 -497.05664062 314.08398438 C-479.75411321 260.97158396 -452.91381766 210.77646122 -417.23828125 167.70703125 C-415.76385671 165.9238267 -414.30250498 164.12971933 -412.85546875 162.32421875 C-407.36905988 155.49339257 -401.54249701 149.06395508 -395.55712891 142.67480469 C-393.99646404 140.99619682 -392.45480365 139.30199438 -390.91796875 137.6015625 C-385.71827578 131.86193341 -380.45801452 126.39977503 -374.61328125 121.30078125 C-372.70051284 119.61674449 -370.83201233 117.91674611 -368.98046875 116.16796875 C-362.43668274 109.9926775 -355.7098278 104.2495148 -348.57421875 98.76953125 C-346.18520035 96.93397855 -343.83903261 95.05933488 -341.51953125 93.13671875 C-331.20295751 84.6136526 -320.23509526 77.25415599 -309 70 C-308.29230469 69.53851563 -307.58460938 69.07703125 -306.85546875 68.6015625 C-290.90104779 58.21702815 -274.04097263 49.22444166 -256.91552734 40.93115234 C-254.96493403 39.98295417 -253.02371843 39.01706464 -251.08203125 38.05078125 C-210.19963789 17.97548891 -164.76183386 6.33158773 -119.8125 0.1875 C-119.05379608 0.0822702 -118.29509216 -0.02295959 -117.51339722 -0.13137817 C-79.19012805 -5.38747674 -38.25598625 -5.56504818 0 0 Z " fill="#000000" transform="translate(794,295)"/>
<path d="M0 0 C0 26.4 0 52.8 0 80 C-2.31 80 -4.62 80 -7 80 C-7.02187378 79.15405273 -7.02187378 79.15405273 -7.04418945 78.29101562 C-7.11944854 75.69338054 -7.21584484 73.09692357 -7.3125 70.5 C-7.33505859 69.613125 -7.35761719 68.72625 -7.38085938 67.8125 C-7.80539446 57.3149051 -11.50554661 48.53806017 -18.96875 41.015625 C-42.90703968 20.72011853 -96.18102568 31.24440226 -115 31 C-115 95.68 -115 160.36 -115 227 C-95.1175 226.896875 -75.235 226.79375 -54.75 226.6875 C-48.48999023 226.66260498 -42.22998047 226.63770996 -35.78027344 226.61206055 C-30.13087631 226.575463 -30.13087631 226.575463 -24.48150635 226.5349884 C-21.98039574 226.51892052 -19.47924412 226.50857721 -16.97808838 226.50288391 C-13.17234616 226.49307958 -9.36713287 226.46466591 -5.56152344 226.43237305 C-3.91187906 226.43451199 -3.91187906 226.43451199 -2.22890854 226.43669415 C8.74600363 226.30459306 18.83609469 224.80809345 27 217 C31.98015569 211.4814491 34.92212703 206.32560466 35.31640625 198.890625 C35.35830078 198.13652344 35.40019531 197.38242187 35.44335938 196.60546875 C35.48267578 195.82816406 35.52199219 195.05085937 35.5625 194.25 C35.60568359 193.45722656 35.64886719 192.66445313 35.69335938 191.84765625 C35.79902991 189.89862185 35.89997966 187.94933252 36 186 C38.31 186 40.62 186 43 186 C43 219.33 43 252.66 43 287 C40.69 287 38.38 287 36 287 C35.98582031 285.81664062 35.97164062 284.63328125 35.95703125 283.4140625 C35.72939188 274.33442116 35.43473001 266.66135794 30 259 C29.40832031 258.15566406 28.81664062 257.31132813 28.20703125 256.44140625 C25.67924949 253.64518748 23.39368004 252.36199802 20 250.75 C18.453125 249.99976563 18.453125 249.99976563 16.875 249.234375 C12.70429426 247.44369156 9.30917536 246.87365886 4.77349854 246.84178162 C3.19088415 246.82712058 3.19088415 246.82712058 1.57629776 246.81216335 C0.41964489 246.8063931 -0.73700798 246.80062284 -1.92871094 246.79467773 C-3.16821629 246.78464501 -4.40772163 246.77461229 -5.68478775 246.76427555 C-9.0347572 246.73807891 -12.38470199 246.71606441 -15.73471069 246.69608307 C-18.87931876 246.67644277 -22.02388331 246.6515422 -25.16845703 246.6270752 C-34.36226687 246.55860221 -43.55613798 246.49856565 -52.75 246.4375 C-73.2925 246.293125 -93.835 246.14875 -115 246 C-115 308.7 -115 371.4 -115 436 C-90.270625 435.896875 -65.54125 435.79375 -40.0625 435.6875 C-32.28179932 435.66260498 -24.50109863 435.63770996 -16.48461914 435.61206055 C-9.45151959 435.57545512 -9.45151959 435.57545512 -2.41844177 435.5349884 C0.69082629 435.51720101 3.800002 435.5074784 6.90931702 435.50288391 C10.89677149 435.49671691 14.88392488 435.4761226 18.87126648 435.44583857 C20.32129364 435.43714392 21.77136042 435.43317772 23.22141254 435.43496072 C49.20250442 435.45719755 77.35906328 429.1993235 96.53564453 410.64086914 C98.04867858 409.11565247 99.53044996 407.56708433 101 406 C101.87011719 405.07574219 102.74023438 404.15148437 103.63671875 403.19921875 C109.6540292 396.36952416 114.60852365 388.94883081 119.09442139 381.04170227 C120.86908945 377.91875481 122.7200862 374.88951049 124.68780518 371.88566589 C134.88400077 355.07377668 133.33854525 336.61860581 133.07980251 317.6605227 C133.02401481 312.8153829 133.02468851 307.97021245 133.01837158 303.12480164 C133.00007471 295.00600936 132.94536233 286.88817348 132.86425781 278.76977539 C132.75018975 267.34189347 132.70585309 255.91448713 132.67368841 244.48612463 C132.64874316 236.53003247 132.60744834 228.57401123 132.5629282 220.61800742 C132.55223229 218.69930617 132.54195691 216.78060252 132.53210354 214.86189675 C132.50338888 209.39896562 132.46433701 203.93630031 132.40914917 198.47356987 C132.3938071 196.82490857 132.38164058 195.17621397 132.37299347 193.52750397 C132.29061213 178.73074751 131.26103626 165.86185622 121 154.25 C112.60938705 146.46140412 101.82615024 143.16619674 90.6875 142.4375 C89.43324219 142.35371094 88.17898438 142.26992188 86.88671875 142.18359375 C85.93410156 142.12300781 84.98148438 142.06242188 84 142 C84 140.02 84 138.04 84 136 C129.87 136 175.74 136 223 136 C223 137.98 223 139.96 223 142 C221.83984375 142.08636719 220.6796875 142.17273438 219.484375 142.26171875 C206.1976059 143.39223462 195.20504524 145.67458129 185.265625 155.27734375 C174.93851167 167.68768511 174.84889034 181.08519852 174.86628723 196.45472717 C174.86441706 198.02421782 174.86211553 199.59370801 174.85942191 201.16319746 C174.85332337 205.4600218 174.85343519 209.75682663 174.85461628 214.05365431 C174.85482077 218.69377733 174.84929704 223.33389416 174.84455872 227.97401428 C174.83626313 237.05742009 174.8335044 246.14081941 174.83294634 255.22422869 C174.83247082 262.60666993 174.83041429 269.98910904 174.82724571 277.37154961 C174.81844343 298.30611284 174.81382587 319.24067095 174.81457619 340.17523605 C174.81461614 341.30310396 174.8146561 342.43097186 174.81469727 343.59301758 C174.81473815 344.72226319 174.81477903 345.85150881 174.81482115 347.01497399 C174.81522787 365.32867557 174.80565057 383.64235661 174.7915589 401.95605225 C174.77720089 420.76430367 174.77028834 439.57254506 174.77115268 458.38080209 C174.77148476 468.93880896 174.76873231 479.49679429 174.75797462 490.05479622 C174.74887738 499.04058319 174.74668812 508.02633884 174.75348405 517.01212842 C174.75675269 521.59638219 174.75679342 526.18057583 174.7481308 530.76482391 C174.74028053 534.96229627 174.74168213 539.15966066 174.75041493 543.35713034 C174.75195312 544.87449074 174.75012175 546.39185913 174.74455485 547.90921009 C174.6999267 560.93748946 175.85210113 570.25762242 184.97265625 580.13671875 C194.08360338 588.81774823 205.72231055 592.87415161 217.44921875 596.8359375 C218.73359776 597.2764041 220.01774592 597.71754431 221.30168152 598.15930176 C224.7197561 599.33268126 228.14146592 600.49507317 231.56423187 601.65468597 C234.4232477 602.62460078 237.28019081 603.60054823 240.13725662 604.57618904 C265.67783337 613.29469545 291.2911248 621.79033756 317 630 C317.71295227 630.22798279 318.42590454 630.45596558 319.16046143 630.69085693 C332.57472021 634.9756226 346.04783118 638.89517277 359.66210938 642.49389648 C366.29432087 644.25034264 372.87690817 646.11809382 379.4375 648.125 C388.8942532 651.01052943 398.41046621 653.5937931 408 656 C409.06033447 656.26659424 409.06033447 656.26659424 410.14208984 656.53857422 C422.00581157 659.49271582 433.97384735 661.81300197 446 664 C446.75845215 664.13792969 447.5169043 664.27585937 448.29833984 664.41796875 C452.49878813 665.17741431 456.70271738 665.91422287 460.90966797 666.63671875 C463.04715249 667.00819469 465.18171316 667.39408232 467.31640625 667.78125 C486.00479194 671.11188996 504.65402586 672.41438697 523.625 672.375 C524.57778839 672.37478851 525.53057678 672.37457703 526.51223755 672.37435913 C542.33794402 672.33950257 557.46965166 671.24292714 573 668 C574.31822754 667.74307373 574.31822754 667.74307373 575.66308594 667.48095703 C591.11698691 664.43523365 605.93222856 659.21435796 620.78466797 654.06567383 C624.169373 652.94386385 627.56560197 651.95713176 631 651 C634 654.75 634 654.75 634 657 C631.75996598 658.57883777 629.52837857 660.02078904 627.1875 661.4375 C626.10650024 662.09903076 626.10650024 662.09903076 625.00366211 662.77392578 C622.67455196 664.19181872 620.33761126 665.59617594 618 667 C617.26749023 667.44585449 616.53498047 667.89170898 615.78027344 668.35107422 C593.94801413 681.60880356 570.62385074 693.01886082 546 700 C544.84113281 700.33902344 543.68226563 700.67804687 542.48828125 701.02734375 C533.6142234 703.52641424 524.7283095 705.29006795 515.6105957 706.61914062 C513.65626068 706.90425824 511.70464788 707.20814505 509.75463867 707.52148438 C499.55948786 709.05481541 489.60352402 709.31569772 479.3125 709.25 C478.47716736 709.24756287 477.64183472 709.24512573 476.78118896 709.24261475 C465.1032886 709.20266308 453.57213527 708.87625283 441.98974609 707.26464844 C440.06762977 707.00899517 438.13705209 706.81965283 436.20703125 706.6328125 C392.45697688 702.1898018 350.0064698 685.04027357 310.1875 667.25 C309.12559448 666.77639038 309.12559448 666.77639038 308.04223633 666.29321289 C302.53244401 663.79002831 297.12869142 661.08026908 291.72198486 658.36384583 C277.34690187 651.1481456 262.86130937 644.15206821 248.40434265 637.10238647 C243.36948639 634.64676358 238.33748767 632.18557337 233.31092834 629.7130127 C185.77179061 606.33692309 137.47315275 584.70058279 84 581 C84 578.69 84 576.38 84 574 C84.96679688 573.96261719 85.93359375 573.92523437 86.9296875 573.88671875 C100.69520448 573.19162829 112.8697095 570.72669314 122.8125 560.375 C129.69534148 551.91382372 132.1285447 541.82265667 132.12025452 531.12832642 C132.12110894 530.46166438 132.12196337 529.79500235 132.12284368 529.10813844 C132.12448275 526.88798239 132.11900304 524.66790293 132.11352539 522.44775391 C132.11324315 520.8508301 132.11340197 519.25390616 132.1139679 517.65698242 C132.11425444 513.33101799 132.10838074 509.00508138 132.10139394 504.6791234 C132.09513667 500.15476657 132.09455472 495.63040908 132.09336853 491.10604858 C132.09026221 482.54266137 132.08205825 473.97928694 132.07201904 465.41590536 C132.06083619 455.6650466 132.05534198 445.91418722 132.05032361 436.16332364 C132.03987506 416.10887529 132.02228915 396.05443845 132 376 C131.69838203 376.83967819 131.69838203 376.83967819 131.39067078 377.69631958 C129.23289602 383.70275468 127.07370867 389.7086808 124.91381836 395.71435547 C124.1156286 397.93428598 123.31776021 400.15433208 122.52026367 402.37451172 C116.08883314 420.27811352 109.54923045 438.1384624 103 456 C1.36 456 -100.28 456 -205 456 C-205 453.69 -205 451.38 -205 449 C-203.99582031 448.98582031 -202.99164063 448.97164062 -201.95703125 448.95703125 C-189.87885841 448.60965017 -178.70594896 446.66552172 -169.70703125 437.875 C-161.06092895 428.37813707 -156.87971963 418.58994794 -156.87136555 405.63336468 C-156.86652888 403.73228688 -156.86652888 403.73228688 -156.8615945 401.79280347 C-156.8630655 400.39390725 -156.86463321 398.99501113 -156.86628723 397.59611511 C-156.86441843 396.1041727 -156.86211744 394.61223077 -156.85942191 393.12028962 C-156.85330612 389.02384592 -156.85343724 384.92742264 -156.85461628 380.83097541 C-156.85482035 376.41164134 -156.84930101 371.99231381 -156.84455872 367.57298279 C-156.83625284 358.9159567 -156.8335039 350.25893743 -156.83294634 341.60190769 C-156.83247115 334.5650364 -156.83041629 327.52816735 -156.82724571 320.49129677 C-156.81843936 300.5401502 -156.81382631 280.58900902 -156.81457619 260.6378605 C-156.81461614 259.56232503 -156.8146561 258.48678956 -156.81469727 257.37866211 C-156.81475859 255.76338899 -156.81475859 255.76338899 -156.81482115 254.1154841 C-156.81522763 236.66231493 -156.80565754 219.20916734 -156.7915589 201.75600442 C-156.77719649 183.83490281 -156.77028864 165.91381172 -156.77115268 147.99270421 C-156.77148469 137.93149455 -156.7687357 127.8703075 -156.75797462 117.80910301 C-156.74887141 109.24304823 -156.74669291 100.67702632 -156.75348405 92.11096879 C-156.75675013 87.74128914 -156.75680272 83.37167256 -156.7481308 79.0019989 C-156.74026885 74.99926397 -156.74169412 70.99664216 -156.75041493 66.99390999 C-156.75195058 65.54844702 -156.75013128 64.10297561 -156.74455485 62.65752258 C-156.48346503 48.6857196 -156.48346503 48.6857196 -162 36.1875 C-164.92279412 32.17596507 -164.92279412 32.17596507 -165.9375 29.86328125 C-167.30137689 27.47148245 -168.48923894 27.07030667 -171 26 C-171.81855469 25.525625 -172.63710938 25.05125 -173.48046875 24.5625 C-183.96864218 18.50872024 -192.98930129 17.64922696 -205 17 C-205 15.02 -205 13.04 -205 11 C-204.30189933 10.99761165 -203.60379866 10.99522329 -202.88454342 10.99276257 C-185.74087347 10.93311011 -168.59734757 10.85725142 -151.45382595 10.76428509 C-143.16267115 10.71969734 -134.87155579 10.68020254 -126.58032227 10.65356445 C-119.33693428 10.63027901 -112.09367513 10.59655587 -104.85039002 10.55129844 C-101.03032764 10.52776805 -97.21038955 10.5087814 -93.39025688 10.50238609 C-77.93959309 10.47305851 -62.62122178 10.12113575 -47.23461914 8.62817383 C-45.38359541 8.44906102 -45.38359541 8.44906102 -43.49517727 8.26632977 C-29.34753168 6.77076933 -13.77084503 0 0 0 Z " fill="#FDFDFD" transform="translate(665,488)"/>
<path d="M0 0 C4.77923201 2.43647122 7.66932175 5.15936055 10 10 C10.84780499 15.84890185 10.59652981 21.12728219 7 26 C1.84087804 29.84405165 -1.61811328 30.7205356 -8 30 C-11.7204201 28.64711996 -13.37711928 26.77552598 -15.3125 23.4375 C-17.88199513 17.77625463 -18.08994075 11.94925145 -15.9375 6.125 C-11.37653711 1.1226536 -6.72735212 -0.97852394 0 0 Z " fill="#F2F2F2" transform="translate(609,382)"/>
<path d="M0 0 C1.72363281 0.86621094 1.72363281 0.86621094 2.72363281 3.86621094 C2.40991211 6.25463867 2.40991211 6.25463867 1.79785156 9.04980469 C1.57806641 10.05978516 1.35828125 11.06976563 1.13183594 12.11035156 C0.77508789 13.69106445 0.77508789 13.69106445 0.41113281 15.30371094 C0.18490234 16.35365234 -0.04132812 17.40359375 -0.27441406 18.48535156 C-2.16258058 27.02291142 -2.16258058 27.02291142 -4.27636719 30.86621094 C-5.59636719 30.20621094 -6.91636719 29.54621094 -8.27636719 28.86621094 C-7.94636719 26.22621094 -7.61636719 23.58621094 -7.27636719 20.86621094 C-8.01886719 20.59808594 -8.76136719 20.32996094 -9.52636719 20.05371094 C-12.27636719 18.86621094 -12.27636719 18.86621094 -14.27636719 17.11621094 C-14.93636719 16.70371094 -15.59636719 16.29121094 -16.27636719 15.86621094 C-18.80505801 16.71099591 -18.80505801 16.71099591 -21.27636719 17.86621094 C-23.58886719 17.49121094 -23.58886719 17.49121094 -25.27636719 16.86621094 C-25.27636719 15.87621094 -25.27636719 14.88621094 -25.27636719 13.86621094 C-21.79131093 11.07251539 -17.85312766 8.91135282 -14.02636719 6.61621094 C-12.96289062 5.95363281 -11.89941406 5.29105469 -10.80371094 4.60839844 C-9.77890625 3.98707031 -8.75410156 3.36574219 -7.69824219 2.72558594 C-6.75561523 2.15291992 -5.81298828 1.58025391 -4.84179688 0.99023438 C-2.27636719 -0.13378906 -2.27636719 -0.13378906 0 0 Z " fill="#F2F2F2" transform="translate(965.2763671875,437.1337890625)"/>
<path d="M0 0 C2.66894558 2.18990406 3.80491175 3.75631237 4.34375 7.19140625 C4.49128605 10.92283874 4.41026726 13.29912676 2.5 16.5625 C2.005 17.036875 1.51 17.51125 1 18 C-0.32 17.67 -1.64 17.34 -3 17 C-2.125 13.125 -2.125 13.125 -1 12 C-0.95936168 10.33382885 -0.957279 8.66611905 -1 7 C-3.8424854 5.42726432 -3.8424854 5.42726432 -7 5 C-7.09796875 5.81984375 -7.1959375 6.6396875 -7.296875 7.484375 C-7.44640625 8.56203125 -7.5959375 9.6396875 -7.75 10.75 C-7.88921875 11.81734375 -8.0284375 12.8846875 -8.171875 13.984375 C-9.12311855 17.44833737 -10.19559214 18.80434116 -13 21 C-15.9375 21.625 -15.9375 21.625 -19 21 C-22.94426213 17.05573787 -24.79693168 14.19313785 -25.3125 8.625 C-24.94760437 4.39221073 -24.10722237 2.84828718 -21 0 C-19.68 0 -18.36 0 -17 0 C-16.67 1.32 -16.34 2.64 -16 4 C-16.99 4.66 -17.98 5.32 -19 6 C-19.38024775 10.65145592 -19.38024775 10.65145592 -18 15 C-17.01 15 -16.02 15 -15 15 C-14.84144531 14.18015625 -14.68289063 13.3603125 -14.51953125 12.515625 C-12.6297663 3.78720787 -12.6297663 3.78720787 -9.75 0.1875 C-5.97624014 -1.44207812 -3.9093758 -1.20835252 0 0 Z " fill="#EEEEEE" transform="translate(1128,701)"/>
<path d="M0 0 C0 1.65 0 3.3 0 5 C-5.94 5.495 -5.94 5.495 -12 6 C-12 8.64 -12 11.28 -12 14 C-11.40832031 13.84402344 -10.81664062 13.68804687 -10.20703125 13.52734375 C-2.35852373 11.5940246 -2.35852373 11.5940246 2 13 C2 13.99 2 14.98 2 16 C0.56342755 16.33730842 -0.87430093 16.66969591 -2.3125 17 C-3.11300781 17.185625 -3.91351562 17.37125 -4.73828125 17.5625 C-7 18 -7 18 -10 18 C-9.67 20.64 -9.34 23.28 -9 26 C-8.175 25.67 -7.35 25.34 -6.5 25 C-2.4126017 23.83217191 0.76923344 23.8541115 5 24 C5 25.32 5 26.64 5 28 C2.77228658 28.50643553 0.54275924 29.0048962 -1.6875 29.5 C-2.92886719 29.7784375 -4.17023437 30.056875 -5.44921875 30.34375 C-8.44441645 30.89731789 -10.98071166 31.05436078 -14 31 C-14.6719902 27.08422732 -15.33666742 23.1672478 -16 19.25 C-16.19078125 18.13882812 -16.3815625 17.02765625 -16.578125 15.8828125 C-16.84882812 14.27792969 -16.84882812 14.27792969 -17.125 12.640625 C-17.29257812 11.65610352 -17.46015625 10.67158203 -17.6328125 9.65722656 C-18 7 -18 7 -18 3 C-15.93918639 2.49309416 -13.87626474 1.99475381 -11.8125 1.5 C-10.66394531 1.2215625 -9.51539063 0.943125 -8.33203125 0.65625 C-5.43181171 0.08504615 -2.93903615 -0.13283779 0 0 Z " fill="#EDEDED" transform="translate(669,367)"/>
<path d="M0 0 C3.5386994 1.65139305 4.81070153 2.71605229 7 6 C7.33333333 12.33333333 7.33333333 12.33333333 6 15 C4.68 14.34 3.36 13.68 2 13 C2.04125 12.21625 2.0825 11.4325 2.125 10.625 C2.28728734 7.83883881 2.28728734 7.83883881 0 6 C-2.58354218 5.83312552 -2.58354218 5.83312552 -5 6 C-4.61102006 9.34522749 -4.26215568 11.60676649 -2.375 14.4375 C-0.45062055 18.02384352 -0.9278552 20.14027873 -2 24 C-4.21025418 26.53769925 -5.555763 26.93239872 -8.875 27.4375 C-13.82295776 26.74478591 -16.81095674 24.50612147 -19.875 20.625 C-21.18502192 17.56828219 -21.22974349 15.29299001 -21 12 C-19.68 11.34 -18.36 10.68 -17 10 C-15.74900384 12.25179309 -14.9852289 14.07754828 -14.5 16.625 C-14.18891761 19.17526091 -14.18891761 19.17526091 -12 21 C-10.68 21 -9.36 21 -8 21 C-7.72985348 17.84829059 -7.78301038 16.34356689 -9.5 13.625 C-11.48049062 10.15914141 -11.5005664 7.93302168 -11 4 C-8.0924049 -0.53584835 -5.13871387 -0.63107012 0 0 Z " fill="#EFEFEF" transform="translate(1008,472)"/>
<path d="M0 0 C5.14595054 0.57618751 9.55078055 1.74743278 14.4375 3.5625 C15.67371094 4.01753906 16.90992188 4.47257812 18.18359375 4.94140625 C19.11300781 5.29074219 20.04242187 5.64007813 21 6 C20.68486005 9.01059227 20.087746 9.92243192 17.77734375 11.96484375 C16.84019531 12.61582031 15.90304687 13.26679688 14.9375 13.9375 C13.95007813 14.62714844 12.96265625 15.31679688 11.9453125 16.02734375 C8.34366949 18.43958476 4.7108738 20.75947242 1 23 C3.40804568 25.40804568 5.42203775 26.00768759 8.625 27.125 C10.12933594 27.65480469 10.12933594 27.65480469 11.6640625 28.1953125 C12.43492187 28.46085937 13.20578125 28.72640625 14 29 C13.34 30.32 12.68 31.64 12 33 C7.31196344 32.26951699 3.09114445 30.63363115 -1.3125 28.9375 C-2.05306641 28.65583984 -2.79363281 28.37417969 -3.55664062 28.08398438 C-5.37242655 27.39281425 -7.18639899 26.69688311 -9 26 C-7.68757661 21.8439926 -6.35996484 20.13837867 -2.6484375 17.88671875 C-1.79765625 17.36142578 -0.946875 16.83613281 -0.0703125 16.29492188 C0.81914063 15.76447266 1.70859375 15.23402344 2.625 14.6875 C3.5221875 14.13771484 4.419375 13.58792969 5.34375 13.02148438 C7.55509104 11.66880235 9.77659855 10.33276549 12 9 C8.04 7.35 4.08 5.7 0 4 C0 2.68 0 1.36 0 0 Z " fill="#F0F0F0" transform="translate(856,383)"/>
<path d="M0 0 C3.5385747 1.13739901 5.41083537 2.28473051 7.62109375 5.3046875 C9.28084073 8.74220791 8.99402907 11.35802837 8.5 15.125 C7.125 17.125 7.125 17.125 5.5 18.125 C4.84 18.125 4.18 18.125 3.5 18.125 C2.65351026 15.58553077 2.47928331 14.21937602 3.0625 11.5625 C3.83510992 8.87694866 3.83510992 8.87694866 1.5 6.125 C-1.08380177 5.87469023 -1.08380177 5.87469023 -3.5 6.125 C-3.45359375 7.24519531 -3.4071875 8.36539063 -3.359375 9.51953125 C-3.32185577 10.99216085 -3.28545577 12.46481927 -3.25 13.9375 C-3.19972656 15.04448242 -3.19972656 15.04448242 -3.1484375 16.17382812 C-3.04948531 21.64093635 -3.04948531 21.64093635 -5.3359375 24.09765625 C-8.45249797 25.57717864 -10.08455073 25.80808985 -13.5 25.125 C-17.93532143 21.26596163 -20.23139887 17.58717703 -20.875 11.6875 C-20.5 8.125 -20.5 8.125 -18 5.6875 C-16.7625 4.9140625 -16.7625 4.9140625 -15.5 4.125 C-14.84 5.775 -14.18 7.425 -13.5 9.125 C-13.83 9.455 -14.16 9.785 -14.5 10.125 C-14.76293056 14.15660191 -14.79404844 15.68392734 -12.5 19.125 C-11.51 19.125 -10.52 19.125 -9.5 19.125 C-9.47873047 17.57039062 -9.47873047 17.57039062 -9.45703125 15.984375 C-9.41011907 14.61453943 -9.36187173 13.24474913 -9.3125 11.875 C-9.30379883 10.85212891 -9.30379883 10.85212891 -9.29492188 9.80859375 C-9.13146947 6.06734977 -8.76628438 4.40778777 -6.16796875 1.6484375 C-3.5 0.125 -3.5 0.125 0 0 Z " fill="#EFEFEF" transform="translate(1093.5,594.875)"/>
<path d="M0 0 C2.69105198 2.17574416 4.45532928 3.91065856 6 7 C6.46153846 12.42307692 6.46153846 12.42307692 4.5 14.875 C4.005 15.24625 3.51 15.6175 3 16 C2.01 15.34 1.02 14.68 0 14 C-0.04166002 11.6670386 -0.04166002 9.3329614 0 7 C-0.66 6.34 -1.32 5.68 -2 5 C-4.10820797 5.3185177 -4.10820797 5.3185177 -6 6 C-5.51515724 10.64586892 -5.51515724 10.64586892 -4 15 C-3.625 18.375 -3.625 18.375 -4 22 C-6.0625 24.5 -6.0625 24.5 -9 26 C-13.43534796 26.07920264 -15.3738454 25.51483823 -18.8125 22.6875 C-23.07503474 17.45067161 -23.07503474 17.45067161 -22.8125 12.375 C-22 9 -22 9 -19 7 C-18.01 8.32 -17.02 9.64 -16 11 C-16.33 11.33 -16.66 11.66 -17 12 C-17.29978682 14.84797478 -17.40071289 16.41896632 -15.75 18.8125 C-13.80082707 20.37433428 -13.80082707 20.37433428 -10 20 C-10.45822468 16.53058454 -10.89131683 13.32604951 -12 10 C-12.56037358 3.72381588 -12.56037358 3.72381588 -10.5 1.0625 C-6.96807493 -0.43856816 -3.72640034 -0.81330166 0 0 Z " fill="#F1F1F1" transform="translate(1046,513)"/>
<path d="M0 0 C1.65 0 3.3 0 5 0 C7.96288652 7.61885105 9.16969554 15.85461391 9 24 C9.66 24 10.32 24 11 24 C11.08121094 23.35675781 11.16242187 22.71351563 11.24609375 22.05078125 C12.29288973 17.814783 14.16277812 14.10178015 16.0625 10.1875 C16.43955078 9.39923828 16.81660156 8.61097656 17.20507812 7.79882812 C18.13170161 5.86347527 19.06517467 3.93140451 20 2 C21.65 2 23.3 2 25 2 C24.39496467 5.67789142 23.36302514 8.69193584 21.75 12.046875 C21.3065625 12.97371094 20.863125 13.90054687 20.40625 14.85546875 C19.9421875 15.81066406 19.478125 16.76585937 19 17.75 C18.30390625 19.20599609 18.30390625 19.20599609 17.59375 20.69140625 C14.14925876 27.85074124 14.14925876 27.85074124 13 29 C10.32941149 29.14115161 7.67567762 29.04247107 5 29 C4.16214152 24.73004144 3.33048723 20.45889784 2.5 16.1875 C2.26152344 14.97255859 2.02304687 13.75761719 1.77734375 12.50585938 C1.55175781 11.34248047 1.32617188 10.17910156 1.09375 8.98046875 C0.88427734 7.90692139 0.67480469 6.83337402 0.45898438 5.72729492 C0 3 0 3 0 0 Z " fill="#F2F2F2" transform="translate(756,363)"/>
<path d="M0 0 C3.96333283 0.82569434 5.44534526 2.55941431 8 5.625 C9.5121867 8.64937339 9.17263369 11.28741534 9 14.625 C7.81232145 18.00531589 7.10174775 18.55716817 4 20.625 C1.125 21.0625 1.125 21.0625 -2 20.625 C-6.25628919 17.12538444 -7.76636522 14.727713 -8.375 9.25 C-8 5.625 -8 5.625 -5.875 2.6875 C-3 0.625 -3 0.625 0 0 Z " fill="#070707" transform="translate(605,386.375)"/>
<path d="M0 0 C1.65 0 3.3 0 5 0 C6.0070436 3.1019264 7.00440805 6.20688098 8 9.3125 C8.28617188 10.19357422 8.57234375 11.07464844 8.8671875 11.98242188 C9.13789062 12.82998047 9.40859375 13.67753906 9.6875 14.55078125 C9.93886719 15.33106689 10.19023438 16.11135254 10.44921875 16.9152832 C11 19 11 19 11 22 C9.35 22 7.7 22 6 22 C5.34 20.02 4.68 18.04 4 16 C-2.25612628 16.99396399 -8.17756263 18.20563907 -14.125 20.4140625 C-16 21 -16 21 -19 21 C-19.33 19.35 -19.66 17.7 -20 16 C-4.57142857 10 -4.57142857 10 2 10 C1.34 6.7 0.68 3.4 0 0 Z " fill="#EBEBEB" transform="translate(1112,643)"/>
<path d="M0 0 C3.30838576 1.18121865 4.62496264 2.5035128 6.140625 5.625 C6.48867188 6.33140625 6.83671875 7.0378125 7.1953125 7.765625 C7.54335938 8.50296875 7.89140625 9.2403125 8.25 10 C8.61351562 10.73734375 8.97703125 11.4746875 9.3515625 12.234375 C12 17.69055451 12 17.69055451 12 20 C12.77085937 19.6390625 13.54171875 19.278125 14.3359375 18.90625 C15.33882812 18.4421875 16.34171875 17.978125 17.375 17.5 C18.37273438 17.0359375 19.37046875 16.571875 20.3984375 16.09375 C23 15 23 15 25 15 C25.33 16.65 25.66 18.3 26 20 C23.73495035 21.19984797 21.46410112 22.38494769 19.1875 23.5625 C18.22360352 24.07586914 18.22360352 24.07586914 17.24023438 24.59960938 C15.53073605 25.4765023 13.76678706 26.24515617 12 27 C9 26 9 26 7.6496582 23.91455078 C7.20452881 23.01720215 6.75939941 22.11985352 6.30078125 21.1953125 C5.57084961 19.73158203 5.57084961 19.73158203 4.82617188 18.23828125 C4.32666016 17.21089844 3.82714844 16.18351562 3.3125 15.125 C2.54583008 13.59552734 2.54583008 13.59552734 1.76367188 12.03515625 C-2 4.40731392 -2 4.40731392 -2 1 C-1.34 0.67 -0.68 0.34 0 0 Z " fill="#ECECEC" transform="translate(543,408)"/>
<path d="M0 0 C1.65 0 3.3 0 5 0 C5 7.59 5 15.18 5 23 C9.29 23 13.58 23 18 23 C18 24.65 18 26.3 18 28 C12.06 28 6.12 28 0 28 C0 18.76 0 9.52 0 0 Z " fill="#F0F0F0" transform="translate(706,363)"/>
<path d="M0 0 C1.65 0.33 3.3 0.66 5 1 C5.349746 7.30417167 4.04072396 12.84539417 2.5 18.9375 C2.26152344 19.90751953 2.02304687 20.87753906 1.77734375 21.87695312 C1.19206612 24.25318032 0.59946749 26.62732042 0 29 C-1.65 28.67 -3.3 28.34 -5 28 C-4.38277416 18.43299944 -2.1798659 9.30752043 0 0 Z " fill="#EBEBEB" transform="translate(815,371)"/>
<path d="M0 0 C0.99 0.99 1.98 1.98 3 3 C1.73256028 6.80231917 0.50687732 7.16460223 -2.91015625 9.13671875 C-3.89951172 9.71357422 -4.88886719 10.29042969 -5.90820312 10.88476562 C-6.94912109 11.47966797 -7.99003906 12.07457031 -9.0625 12.6875 C-10.10728516 13.29400391 -11.15207031 13.90050781 -12.22851562 14.52539062 C-14.81447836 16.02501285 -17.40499351 17.51610023 -20 19 C-21.5 17.625 -21.5 17.625 -23 16 C-23 15.34 -23 14.68 -23 14 C-20.88867188 12.48779297 -20.88867188 12.48779297 -17.96875 10.7421875 C-16.93105469 10.11699219 -15.89335938 9.49179687 -14.82421875 8.84765625 C-13.72722656 8.19667969 -12.63023438 7.54570313 -11.5 6.875 C-10.40300781 6.21628906 -9.30601563 5.55757812 -8.17578125 4.87890625 C-5.45435396 3.24604987 -2.72902216 1.62012023 0 0 Z " fill="#F0F0F0" transform="translate(1075,555)"/>
<path d="M0 0 C6.16356805 1.6658292 11.48259656 4.87805286 17 8 C16.34 9.32 15.68 10.64 15 12 C9.72 9.36 4.44 6.72 -1 4 C-0.67 2.68 -0.34 1.36 0 0 Z " fill="#E9E9E9" transform="translate(896,429)"/>
<path d="M0 0 C-0.66 3.3 -1.32 6.6 -2 10 C-5.65316671 8.75023244 -6.78065836 8.32901247 -9 5 C-7.87926138 4.16094435 -6.75325453 3.32892169 -5.625 2.5 C-4.99851562 2.0359375 -4.37203125 1.571875 -3.7265625 1.09375 C-2 0 -2 0 0 0 Z " fill="#131313" transform="translate(962,444)"/>
</svg>
